<mxfile host="app.diagrams.net" modified="2024-01-01T21:37:29.746Z" agent="Mozilla/5.0 (Windows NT 10.0; Win64; x64) AppleWebKit/537.36 (KHTML, like Gecko) Chrome/120.0.0.0 Safari/537.36 Edg/120.0.0.0" etag="Xhav0LzE1FNK1U6WtBYZ" version="22.1.16" type="device">
  <diagram name="PÃ¡gina-1" id="r4mbhVPTDWbey-j9Cxd_">
    <mxGraphModel dx="4140" dy="1923" grid="1" gridSize="10" guides="1" tooltips="1" connect="1" arrows="1" fold="1" page="1" pageScale="1" pageWidth="827" pageHeight="1169" math="0" shadow="0">
      <root>
        <mxCell id="0" />
        <mxCell id="1" parent="0" />
        <mxCell id="G10zAKaPC6h3bYu0PMV_-60" value="UserRoute" style="shape=umlLifeline;perimeter=lifelinePerimeter;whiteSpace=wrap;container=1;dropTarget=0;collapsible=0;recursiveResize=0;outlineConnect=0;portConstraint=eastwest;newEdgeStyle={&quot;edgeStyle&quot;:&quot;elbowEdgeStyle&quot;,&quot;elbow&quot;:&quot;vertical&quot;,&quot;curved&quot;:0,&quot;rounded&quot;:0};size=65;" vertex="1" parent="1">
          <mxGeometry x="180" y="30" width="150" height="900" as="geometry" />
        </mxCell>
        <mxCell id="G10zAKaPC6h3bYu0PMV_-97" value="" style="html=1;points=[[0,0,0,0,5],[0,1,0,0,-5],[1,0,0,0,5],[1,1,0,0,-5]];perimeter=orthogonalPerimeter;outlineConnect=0;targetShapes=umlLifeline;portConstraint=eastwest;newEdgeStyle={&quot;curved&quot;:0,&quot;rounded&quot;:0};" vertex="1" parent="G10zAKaPC6h3bYu0PMV_-60">
          <mxGeometry x="70" y="80" width="10" height="760" as="geometry" />
        </mxCell>
        <mxCell id="G10zAKaPC6h3bYu0PMV_-61" value="UserController" style="shape=umlLifeline;perimeter=lifelinePerimeter;whiteSpace=wrap;container=1;dropTarget=0;collapsible=0;recursiveResize=0;outlineConnect=0;portConstraint=eastwest;newEdgeStyle={&quot;edgeStyle&quot;:&quot;elbowEdgeStyle&quot;,&quot;elbow&quot;:&quot;vertical&quot;,&quot;curved&quot;:0,&quot;rounded&quot;:0};size=65;" vertex="1" parent="1">
          <mxGeometry x="458" y="30" width="150" height="860" as="geometry" />
        </mxCell>
        <mxCell id="G10zAKaPC6h3bYu0PMV_-96" value="" style="html=1;points=[[0,0,0,0,5],[0,1,0,0,-5],[1,0,0,0,5],[1,1,0,0,-5]];perimeter=orthogonalPerimeter;outlineConnect=0;targetShapes=umlLifeline;portConstraint=eastwest;newEdgeStyle={&quot;curved&quot;:0,&quot;rounded&quot;:0};" vertex="1" parent="G10zAKaPC6h3bYu0PMV_-61">
          <mxGeometry x="70" y="100" width="10" height="610" as="geometry" />
        </mxCell>
        <mxCell id="G10zAKaPC6h3bYu0PMV_-62" value="AuthService" style="shape=umlLifeline;perimeter=lifelinePerimeter;whiteSpace=wrap;container=1;dropTarget=0;collapsible=0;recursiveResize=0;outlineConnect=0;portConstraint=eastwest;newEdgeStyle={&quot;edgeStyle&quot;:&quot;elbowEdgeStyle&quot;,&quot;elbow&quot;:&quot;vertical&quot;,&quot;curved&quot;:0,&quot;rounded&quot;:0};size=65;" vertex="1" parent="1">
          <mxGeometry x="711" y="30" width="150" height="860" as="geometry" />
        </mxCell>
        <mxCell id="G10zAKaPC6h3bYu0PMV_-98" value="" style="html=1;points=[[0,0,0,0,5],[0,1,0,0,-5],[1,0,0,0,5],[1,1,0,0,-5]];perimeter=orthogonalPerimeter;outlineConnect=0;targetShapes=umlLifeline;portConstraint=eastwest;newEdgeStyle={&quot;curved&quot;:0,&quot;rounded&quot;:0};" vertex="1" parent="G10zAKaPC6h3bYu0PMV_-62">
          <mxGeometry x="70" y="140" width="10" height="90" as="geometry" />
        </mxCell>
        <mxCell id="G10zAKaPC6h3bYu0PMV_-63" value="UserService" style="shape=umlLifeline;perimeter=lifelinePerimeter;whiteSpace=wrap;container=1;dropTarget=0;collapsible=0;recursiveResize=0;outlineConnect=0;portConstraint=eastwest;newEdgeStyle={&quot;edgeStyle&quot;:&quot;elbowEdgeStyle&quot;,&quot;elbow&quot;:&quot;vertical&quot;,&quot;curved&quot;:0,&quot;rounded&quot;:0};size=65;" vertex="1" parent="1">
          <mxGeometry x="911" y="30" width="150" height="880" as="geometry" />
        </mxCell>
        <mxCell id="G10zAKaPC6h3bYu0PMV_-99" value="" style="html=1;points=[[0,0,0,0,5],[0,1,0,0,-5],[1,0,0,0,5],[1,1,0,0,-5]];perimeter=orthogonalPerimeter;outlineConnect=0;targetShapes=umlLifeline;portConstraint=eastwest;newEdgeStyle={&quot;curved&quot;:0,&quot;rounded&quot;:0};" vertex="1" parent="G10zAKaPC6h3bYu0PMV_-63">
          <mxGeometry x="70" y="250" width="10" height="430" as="geometry" />
        </mxCell>
        <mxCell id="G10zAKaPC6h3bYu0PMV_-64" value="UserRepo" style="shape=umlLifeline;perimeter=lifelinePerimeter;whiteSpace=wrap;container=1;dropTarget=0;collapsible=0;recursiveResize=0;outlineConnect=0;portConstraint=eastwest;newEdgeStyle={&quot;edgeStyle&quot;:&quot;elbowEdgeStyle&quot;,&quot;elbow&quot;:&quot;vertical&quot;,&quot;curved&quot;:0,&quot;rounded&quot;:0};size=65;" vertex="1" parent="1">
          <mxGeometry x="1193" y="30" width="150" height="870" as="geometry" />
        </mxCell>
        <mxCell id="G10zAKaPC6h3bYu0PMV_-100" value="" style="html=1;points=[[0,0,0,0,5],[0,1,0,0,-5],[1,0,0,0,5],[1,1,0,0,-5]];perimeter=orthogonalPerimeter;outlineConnect=0;targetShapes=umlLifeline;portConstraint=eastwest;newEdgeStyle={&quot;curved&quot;:0,&quot;rounded&quot;:0};" vertex="1" parent="G10zAKaPC6h3bYu0PMV_-64">
          <mxGeometry x="70" y="310" width="10" height="150" as="geometry" />
        </mxCell>
        <mxCell id="G10zAKaPC6h3bYu0PMV_-65" value="UserMapper" style="shape=umlLifeline;perimeter=lifelinePerimeter;whiteSpace=wrap;container=1;dropTarget=0;collapsible=0;recursiveResize=0;outlineConnect=0;portConstraint=eastwest;newEdgeStyle={&quot;edgeStyle&quot;:&quot;elbowEdgeStyle&quot;,&quot;elbow&quot;:&quot;vertical&quot;,&quot;curved&quot;:0,&quot;rounded&quot;:0};size=65;" vertex="1" parent="1">
          <mxGeometry x="1393" y="30" width="150" height="880" as="geometry" />
        </mxCell>
        <mxCell id="G10zAKaPC6h3bYu0PMV_-101" value="" style="html=1;points=[[0,0,0,0,5],[0,1,0,0,-5],[1,0,0,0,5],[1,1,0,0,-5]];perimeter=orthogonalPerimeter;outlineConnect=0;targetShapes=umlLifeline;portConstraint=eastwest;newEdgeStyle={&quot;curved&quot;:0,&quot;rounded&quot;:0};" vertex="1" parent="G10zAKaPC6h3bYu0PMV_-65">
          <mxGeometry x="67" y="320" width="10" height="90" as="geometry" />
        </mxCell>
        <mxCell id="G10zAKaPC6h3bYu0PMV_-66" value="User" style="shape=umlLifeline;perimeter=lifelinePerimeter;whiteSpace=wrap;container=1;dropTarget=0;collapsible=0;recursiveResize=0;outlineConnect=0;portConstraint=eastwest;newEdgeStyle={&quot;edgeStyle&quot;:&quot;elbowEdgeStyle&quot;,&quot;elbow&quot;:&quot;vertical&quot;,&quot;curved&quot;:0,&quot;rounded&quot;:0};size=65;" vertex="1" parent="1">
          <mxGeometry x="1593" y="30" width="150" height="840" as="geometry" />
        </mxCell>
        <mxCell id="G10zAKaPC6h3bYu0PMV_-102" value="" style="html=1;points=[[0,0,0,0,5],[0,1,0,0,-5],[1,0,0,0,5],[1,1,0,0,-5]];perimeter=orthogonalPerimeter;outlineConnect=0;targetShapes=umlLifeline;portConstraint=eastwest;newEdgeStyle={&quot;curved&quot;:0,&quot;rounded&quot;:0};" vertex="1" parent="G10zAKaPC6h3bYu0PMV_-66">
          <mxGeometry x="70" y="480" width="10" height="90" as="geometry" />
        </mxCell>
        <mxCell id="G10zAKaPC6h3bYu0PMV_-67" value="approveOrRejectSignUp(json)" style="verticalAlign=bottom;endArrow=block;edgeStyle=elbowEdgeStyle;elbow=vertical;curved=0;rounded=0;" edge="1" parent="1" source="G10zAKaPC6h3bYu0PMV_-60" target="G10zAKaPC6h3bYu0PMV_-61">
          <mxGeometry relative="1" as="geometry">
            <Array as="points">
              <mxPoint x="404" y="139" />
            </Array>
          </mxGeometry>
        </mxCell>
        <mxCell id="G10zAKaPC6h3bYu0PMV_-68" value="checkAuth(json,[&quot;admin&quot;])" style="verticalAlign=bottom;endArrow=block;edgeStyle=elbowEdgeStyle;elbow=vertical;curved=0;rounded=0;" edge="1" parent="1" source="G10zAKaPC6h3bYu0PMV_-61" target="G10zAKaPC6h3bYu0PMV_-62">
          <mxGeometry relative="1" as="geometry">
            <Array as="points">
              <mxPoint x="670" y="193" />
            </Array>
          </mxGeometry>
        </mxCell>
        <mxCell id="G10zAKaPC6h3bYu0PMV_-69" value="Result&lt;void&gt;" style="verticalAlign=bottom;endArrow=block;edgeStyle=elbowEdgeStyle;elbow=vertical;curved=0;rounded=0;" edge="1" parent="1" source="G10zAKaPC6h3bYu0PMV_-62" target="G10zAKaPC6h3bYu0PMV_-61">
          <mxGeometry relative="1" as="geometry">
            <Array as="points">
              <mxPoint x="670" y="247" />
            </Array>
          </mxGeometry>
        </mxCell>
        <mxCell id="G10zAKaPC6h3bYu0PMV_-70" value="approveOrRejectSignUp(user: IApproveOrRejectSignUpDTO)" style="verticalAlign=bottom;endArrow=block;edgeStyle=elbowEdgeStyle;elbow=vertical;curved=0;rounded=0;" edge="1" parent="1" source="G10zAKaPC6h3bYu0PMV_-61" target="G10zAKaPC6h3bYu0PMV_-63">
          <mxGeometry relative="1" as="geometry">
            <Array as="points">
              <mxPoint x="770" y="301" />
            </Array>
          </mxGeometry>
        </mxCell>
        <mxCell id="G10zAKaPC6h3bYu0PMV_-71" value="findByEmail(user.email: String)" style="verticalAlign=bottom;endArrow=block;edgeStyle=elbowEdgeStyle;elbow=vertical;curved=0;rounded=0;" edge="1" parent="1" source="G10zAKaPC6h3bYu0PMV_-63" target="G10zAKaPC6h3bYu0PMV_-64">
          <mxGeometry relative="1" as="geometry">
            <Array as="points">
              <mxPoint x="1137" y="355" />
            </Array>
          </mxGeometry>
        </mxCell>
        <mxCell id="G10zAKaPC6h3bYu0PMV_-72" value="" style="verticalAlign=bottom;endArrow=block;edgeStyle=elbowEdgeStyle;elbow=vertical;curved=0;rounded=0;" edge="1" parent="1" source="G10zAKaPC6h3bYu0PMV_-64" target="G10zAKaPC6h3bYu0PMV_-65">
          <mxGeometry relative="1" as="geometry">
            <Array as="points">
              <mxPoint x="1378" y="365" />
            </Array>
          </mxGeometry>
        </mxCell>
        <mxCell id="G10zAKaPC6h3bYu0PMV_-73" value="User" style="verticalAlign=bottom;endArrow=block;edgeStyle=elbowEdgeStyle;elbow=vertical;curved=0;rounded=0;" edge="1" parent="1" source="G10zAKaPC6h3bYu0PMV_-65" target="G10zAKaPC6h3bYu0PMV_-64">
          <mxGeometry relative="1" as="geometry">
            <Array as="points">
              <mxPoint x="1378" y="419" />
            </Array>
          </mxGeometry>
        </mxCell>
        <mxCell id="G10zAKaPC6h3bYu0PMV_-74" value="User" style="verticalAlign=bottom;endArrow=block;edgeStyle=elbowEdgeStyle;elbow=vertical;curved=0;rounded=0;" edge="1" parent="1" source="G10zAKaPC6h3bYu0PMV_-64" target="G10zAKaPC6h3bYu0PMV_-63">
          <mxGeometry relative="1" as="geometry">
            <Array as="points">
              <mxPoint x="1137" y="473" />
            </Array>
          </mxGeometry>
        </mxCell>
        <mxCell id="G10zAKaPC6h3bYu0PMV_-75" value="approve() if user.estado == &quot;aceito&quot; or reject() if user.estado == &quot;rejeitado&quot;" style="verticalAlign=bottom;endArrow=block;edgeStyle=elbowEdgeStyle;elbow=vertical;curved=0;rounded=0;" edge="1" parent="1" source="G10zAKaPC6h3bYu0PMV_-63" target="G10zAKaPC6h3bYu0PMV_-66">
          <mxGeometry relative="1" as="geometry">
            <Array as="points">
              <mxPoint x="1337" y="527" />
            </Array>
          </mxGeometry>
        </mxCell>
        <mxCell id="G10zAKaPC6h3bYu0PMV_-76" value="User" style="verticalAlign=bottom;endArrow=block;edgeStyle=elbowEdgeStyle;elbow=vertical;curved=0;rounded=0;" edge="1" parent="1" source="G10zAKaPC6h3bYu0PMV_-66" target="G10zAKaPC6h3bYu0PMV_-63">
          <mxGeometry relative="1" as="geometry">
            <Array as="points">
              <mxPoint x="1337" y="581" />
            </Array>
          </mxGeometry>
        </mxCell>
        <mxCell id="G10zAKaPC6h3bYu0PMV_-77" value="save()" style="verticalAlign=bottom;endArrow=block;edgeStyle=elbowEdgeStyle;elbow=vertical;curved=0;rounded=0;" edge="1" parent="1" source="G10zAKaPC6h3bYu0PMV_-63" target="G10zAKaPC6h3bYu0PMV_-64">
          <mxGeometry relative="1" as="geometry">
            <Array as="points">
              <mxPoint x="1137" y="635" />
            </Array>
          </mxGeometry>
        </mxCell>
        <mxCell id="G10zAKaPC6h3bYu0PMV_-78" value="Result&lt;string&gt;" style="verticalAlign=bottom;endArrow=block;edgeStyle=elbowEdgeStyle;elbow=vertical;curved=0;rounded=0;" edge="1" parent="1" source="G10zAKaPC6h3bYu0PMV_-63" target="G10zAKaPC6h3bYu0PMV_-61">
          <mxGeometry relative="1" as="geometry">
            <Array as="points">
              <mxPoint x="770" y="689" />
            </Array>
          </mxGeometry>
        </mxCell>
        <mxCell id="G10zAKaPC6h3bYu0PMV_-79" value="Result&lt;string&gt;" style="verticalAlign=bottom;endArrow=block;edgeStyle=elbowEdgeStyle;elbow=vertical;curved=0;rounded=0;" edge="1" parent="1">
          <mxGeometry relative="1" as="geometry">
            <Array as="points">
              <mxPoint x="404" y="720" />
            </Array>
            <mxPoint x="532.5" y="720" as="sourcePoint" />
            <mxPoint x="254.16666666666674" y="720" as="targetPoint" />
          </mxGeometry>
        </mxCell>
        <mxCell id="G10zAKaPC6h3bYu0PMV_-80" value="UserRoute" style="shape=umlLifeline;perimeter=lifelinePerimeter;whiteSpace=wrap;container=1;dropTarget=0;collapsible=0;recursiveResize=0;outlineConnect=0;portConstraint=eastwest;newEdgeStyle={&quot;edgeStyle&quot;:&quot;elbowEdgeStyle&quot;,&quot;elbow&quot;:&quot;vertical&quot;,&quot;curved&quot;:0,&quot;rounded&quot;:0};size=65;" vertex="1" parent="1">
          <mxGeometry x="180" y="890" width="150" height="60" as="geometry" />
        </mxCell>
        <mxCell id="G10zAKaPC6h3bYu0PMV_-81" value="UserController" style="shape=umlLifeline;perimeter=lifelinePerimeter;whiteSpace=wrap;container=1;dropTarget=0;collapsible=0;recursiveResize=0;outlineConnect=0;portConstraint=eastwest;newEdgeStyle={&quot;edgeStyle&quot;:&quot;elbowEdgeStyle&quot;,&quot;elbow&quot;:&quot;vertical&quot;,&quot;curved&quot;:0,&quot;rounded&quot;:0};size=65;" vertex="1" parent="1">
          <mxGeometry x="450" y="840" width="150" height="60" as="geometry" />
        </mxCell>
        <mxCell id="G10zAKaPC6h3bYu0PMV_-82" value="AuthService" style="shape=umlLifeline;perimeter=lifelinePerimeter;whiteSpace=wrap;container=1;dropTarget=0;collapsible=0;recursiveResize=0;outlineConnect=0;portConstraint=eastwest;newEdgeStyle={&quot;edgeStyle&quot;:&quot;elbowEdgeStyle&quot;,&quot;elbow&quot;:&quot;vertical&quot;,&quot;curved&quot;:0,&quot;rounded&quot;:0};size=60;" vertex="1" parent="1">
          <mxGeometry x="711" y="850" width="150" height="60" as="geometry" />
        </mxCell>
        <mxCell id="G10zAKaPC6h3bYu0PMV_-83" value="UserService" style="shape=umlLifeline;perimeter=lifelinePerimeter;whiteSpace=wrap;container=1;dropTarget=0;collapsible=0;recursiveResize=0;outlineConnect=0;portConstraint=eastwest;newEdgeStyle={&quot;edgeStyle&quot;:&quot;elbowEdgeStyle&quot;,&quot;elbow&quot;:&quot;vertical&quot;,&quot;curved&quot;:0,&quot;rounded&quot;:0};size=65;" vertex="1" parent="1">
          <mxGeometry x="911" y="848" width="150" height="62" as="geometry" />
        </mxCell>
        <mxCell id="G10zAKaPC6h3bYu0PMV_-84" value="UserRepo" style="shape=umlLifeline;perimeter=lifelinePerimeter;whiteSpace=wrap;container=1;dropTarget=0;collapsible=0;recursiveResize=0;outlineConnect=0;portConstraint=eastwest;newEdgeStyle={&quot;edgeStyle&quot;:&quot;elbowEdgeStyle&quot;,&quot;elbow&quot;:&quot;vertical&quot;,&quot;curved&quot;:0,&quot;rounded&quot;:0};size=70;" vertex="1" parent="1">
          <mxGeometry x="1193" y="850" width="150" height="70" as="geometry" />
        </mxCell>
        <mxCell id="G10zAKaPC6h3bYu0PMV_-85" value="UserMapper" style="shape=umlLifeline;perimeter=lifelinePerimeter;whiteSpace=wrap;container=1;dropTarget=0;collapsible=0;recursiveResize=0;outlineConnect=0;portConstraint=eastwest;newEdgeStyle={&quot;edgeStyle&quot;:&quot;elbowEdgeStyle&quot;,&quot;elbow&quot;:&quot;vertical&quot;,&quot;curved&quot;:0,&quot;rounded&quot;:0};size=70;" vertex="1" parent="1">
          <mxGeometry x="1393" y="850" width="147" height="70" as="geometry" />
        </mxCell>
        <mxCell id="G10zAKaPC6h3bYu0PMV_-86" value="User" style="shape=umlLifeline;perimeter=lifelinePerimeter;whiteSpace=wrap;container=1;dropTarget=0;collapsible=0;recursiveResize=0;outlineConnect=0;portConstraint=eastwest;newEdgeStyle={&quot;edgeStyle&quot;:&quot;elbowEdgeStyle&quot;,&quot;elbow&quot;:&quot;vertical&quot;,&quot;curved&quot;:0,&quot;rounded&quot;:0};size=70;" vertex="1" parent="1">
          <mxGeometry x="1593" y="850" width="137" height="70" as="geometry" />
        </mxCell>
        <mxCell id="G10zAKaPC6h3bYu0PMV_-87" value="PATCH(json)" style="html=1;verticalAlign=bottom;startArrow=oval;startFill=1;endArrow=block;startSize=8;curved=0;rounded=0;" edge="1" parent="1">
          <mxGeometry x="-0.0026" width="60" relative="1" as="geometry">
            <mxPoint x="60" y="120" as="sourcePoint" />
            <mxPoint x="250" y="120" as="targetPoint" />
            <mxPoint as="offset" />
          </mxGeometry>
        </mxCell>
        <mxCell id="G10zAKaPC6h3bYu0PMV_-88" value="" style="ellipse;html=1;" vertex="1" parent="1">
          <mxGeometry x="135" y="780" width="10" height="10" as="geometry" />
        </mxCell>
        <mxCell id="G10zAKaPC6h3bYu0PMV_-89" value="" style="html=1;verticalAlign=bottom;labelBackgroundColor=none;endArrow=block;endFill=1;dashed=1;rounded=0;entryX=1;entryY=0.5;entryDx=0;entryDy=0;" edge="1" parent="1" target="G10zAKaPC6h3bYu0PMV_-88">
          <mxGeometry width="160" relative="1" as="geometry">
            <mxPoint x="250" y="785" as="sourcePoint" />
            <mxPoint x="518" y="825" as="targetPoint" />
          </mxGeometry>
        </mxCell>
        <mxCell id="G10zAKaPC6h3bYu0PMV_-90" value="201 Created" style="text;html=1;align=center;verticalAlign=middle;resizable=0;points=[];autosize=1;strokeColor=none;fillColor=none;" vertex="1" parent="1">
          <mxGeometry x="156" y="758" width="90" height="30" as="geometry" />
        </mxCell>
        <mxCell id="G10zAKaPC6h3bYu0PMV_-91" value="alt" style="shape=umlFrame;whiteSpace=wrap;html=1;pointerEvents=0;recursiveResize=0;container=1;collapsible=0;width=100;height=20;" vertex="1" parent="1">
          <mxGeometry x="60" y="740" width="300" height="140" as="geometry" />
        </mxCell>
        <mxCell id="G10zAKaPC6h3bYu0PMV_-92" value="" style="line;strokeWidth=1;dashed=1;labelPosition=center;verticalLabelPosition=bottom;align=left;verticalAlign=top;spacingLeft=20;spacingTop=15;html=1;whiteSpace=wrap;" vertex="1" parent="G10zAKaPC6h3bYu0PMV_-91">
          <mxGeometry y="70" width="300" height="10" as="geometry" />
        </mxCell>
        <mxCell id="G10zAKaPC6h3bYu0PMV_-93" value="400&amp;nbsp;Bad Request" style="text;html=1;align=center;verticalAlign=middle;resizable=0;points=[];autosize=1;strokeColor=none;fillColor=none;" vertex="1" parent="G10zAKaPC6h3bYu0PMV_-91">
          <mxGeometry x="86" y="90" width="120" height="30" as="geometry" />
        </mxCell>
        <mxCell id="G10zAKaPC6h3bYu0PMV_-94" value="" style="html=1;verticalAlign=bottom;labelBackgroundColor=none;endArrow=block;endFill=1;dashed=1;rounded=0;entryX=1;entryY=0.5;entryDx=0;entryDy=0;" edge="1" parent="G10zAKaPC6h3bYu0PMV_-91" target="G10zAKaPC6h3bYu0PMV_-95">
          <mxGeometry width="160" relative="1" as="geometry">
            <mxPoint x="189" y="119" as="sourcePoint" />
            <mxPoint x="459" y="159" as="targetPoint" />
            <Array as="points">
              <mxPoint x="119" y="119" />
            </Array>
          </mxGeometry>
        </mxCell>
        <mxCell id="G10zAKaPC6h3bYu0PMV_-95" value="" style="ellipse;html=1;" vertex="1" parent="G10zAKaPC6h3bYu0PMV_-91">
          <mxGeometry x="76" y="114" width="10" height="10" as="geometry" />
        </mxCell>
      </root>
    </mxGraphModel>
  </diagram>
</mxfile>
